<?xml version="1.0" standalone="no"?>
<!DOCTYPE svg PUBLIC "-//W3C//DTD SVG 20010904//EN"
 "http://www.w3.org/TR/2001/REC-SVG-20010904/DTD/svg10.dtd">
<svg version="1.0" xmlns="http://www.w3.org/2000/svg"
 width="1024.000000pt" height="1024.000000pt" viewBox="0 0 1024.000000 1024.000000"
 preserveAspectRatio="xMidYMid meet">

<g transform="translate(0.000000,1024.000000) scale(0.100000,-0.100000)"
fill="#000000" stroke="none">
<path d="M3065 7939 c-306 -45 -588 -264 -700 -543 -70 -173 -66 -17 -63
-2301 l3 -2060 28 -88 c47 -150 109 -256 217 -371 106 -113 232 -186 415 -243
l90 -28 2060 0 2060 0 79 23 c155 45 296 123 399 221 136 129 237 324 267 513
8 53 10 620 8 2108 l-3 2035 -28 89 c-61 194 -177 370 -312 471 -80 60 -213
128 -305 157 l-75 23 -2040 1 c-1123 1 -2067 -2 -2100 -7z m3396 -394 c20 -13
51 -46 69 -75 57 -88 52 -186 -14 -272 -39 -50 -83 -76 -148 -83 -38 -5 -50
-1 -98 32 -130 90 -158 242 -64 351 42 50 65 64 119 72 55 9 94 2 136 -25z
m628 15 c21 -10 57 -40 79 -65 84 -96 76 -220 -20 -312 -73 -70 -162 -82 -240
-32 -149 96 -140 326 15 404 61 30 114 32 166 5z m-3392 -116 c18 -20 35 -51
39 -69 13 -70 -51 -145 -124 -145 -40 0 -97 50 -108 93 -14 60 23 133 81 158
36 15 78 1 112 -37z m498 26 c33 -13 65 -66 65 -110 0 -67 -61 -130 -125 -130
-80 0 -131 108 -87 188 34 64 77 79 147 52z m-1005 -5 c72 -37 95 -137 43
-187 -16 -15 -41 -32 -57 -38 -40 -15 -84 13 -113 70 -33 63 -30 95 11 136 38
38 70 43 116 19z m4388 -2510 c-4 -2037 2 -1872 -71 -2009 -42 -80 -155 -193
-233 -234 -130 -68 11 -64 -2174 -65 l-1975 -2 -73 27 c-41 15 -99 42 -129 60
-73 44 -175 155 -213 232 -63 128 -61 41 -60 2018 l1 1798 1142 2 c628 2 1737
3 2465 3 l1323 0 -3 -1830z"/>
<path d="M5332 6545 c-155 -54 -236 -112 -280 -202 -15 -31 -14 -36 20 -130
20 -54 62 -163 93 -243 95 -245 195 -513 195 -525 0 -1 -19 -8 -42 -13 -37
-10 -136 -49 -360 -143 -32 -13 -58 -28 -58 -33 0 -10 62 -179 96 -261 13 -34
29 -90 35 -125 5 -36 12 -66 14 -69 3 -2 28 6 56 19 29 12 72 28 95 35 l43 13
21 -54 c11 -30 20 -63 20 -73 0 -35 13 -81 22 -81 5 0 40 14 78 30 38 17 72
30 77 30 15 0 33 -63 33 -113 0 -26 3 -47 6 -47 4 0 29 8 56 18 l50 17 19 -25
c10 -14 25 -32 33 -40 7 -8 21 -31 31 -50 10 -19 41 -58 70 -85 28 -28 55 -64
59 -80 4 -16 23 -63 42 -105 20 -41 54 -129 76 -195 22 -66 44 -125 49 -131
10 -12 159 44 474 176 77 32 205 84 285 115 80 31 184 74 231 95 48 21 124 51
170 66 99 32 164 63 208 100 39 33 39 32 -33 204 -53 123 -86 222 -86 254 0 9
11 22 25 28 14 6 25 16 25 22 0 7 -16 45 -36 86 -20 41 -46 107 -59 145 -12
39 -48 138 -79 220 -31 83 -92 257 -136 389 -44 131 -82 242 -85 246 -3 5 -19
1 -35 -8 -22 -13 -34 -14 -47 -6 -15 8 -72 106 -85 145 -2 7 -46 -10 -116 -45
-61 -31 -114 -56 -116 -56 -2 0 -21 41 -42 90 -20 50 -40 89 -43 87 -71 -38
-240 -117 -253 -117 -11 0 -29 21 -47 53 -17 28 -34 58 -38 65 -6 10 -35 3
-131 -33 -68 -26 -125 -45 -126 -43 -2 2 -8 24 -15 50 -15 63 -86 245 -111
286 -17 28 -25 32 -63 32 -23 0 -67 7 -97 16 -90 26 -111 26 -188 -1z m231
-380 c30 -66 67 -154 81 -195 15 -41 42 -113 61 -160 19 -47 57 -148 85 -225
59 -167 81 -211 100 -208 8 1 49 8 90 16 74 14 75 14 72 43 -2 16 -34 108 -71
204 -38 96 -77 200 -87 230 l-19 55 65 23 c36 12 72 25 80 28 22 7 87 -150
140 -337 23 -79 45 -147 48 -151 11 -10 202 55 202 68 0 7 -21 57 -46 111 -37
79 -94 224 -94 240 0 2 8 3 18 3 10 0 41 11 67 25 27 13 51 23 53 20 8 -8 101
-218 127 -287 15 -40 31 -77 36 -82 8 -9 145 28 165 45 17 14 192 -522 200
-614 5 -62 17 -95 84 -239 43 -93 75 -170 70 -173 -4 -2 -68 -26 -141 -51 -74
-26 -217 -82 -319 -126 -102 -44 -233 -97 -292 -119 -60 -21 -132 -50 -161
-64 -30 -14 -57 -25 -60 -25 -8 0 -42 116 -62 210 -8 41 -29 114 -46 161 -25
69 -40 94 -80 134 -27 26 -49 54 -49 62 0 18 -7 16 -33 -8 -21 -20 -146 -84
-152 -77 -1 2 -10 30 -20 63 -9 33 -31 88 -49 122 l-33 61 91 35 c50 20 99 38
108 41 15 5 14 11 -11 68 -16 35 -52 125 -81 202 -29 76 -75 191 -102 254 -27
64 -60 148 -73 187 -12 38 -46 129 -75 200 -43 106 -120 320 -120 332 0 2 6 3
13 3 7 0 44 13 82 29 l70 30 6 -22 c4 -12 31 -76 62 -142z m1142 -377 c28
-102 28 -108 4 -64 -40 74 -54 136 -30 136 3 0 15 -33 26 -72z m-1231 -649
c21 -61 36 -125 34 -142 l-3 -32 -26 28 c-33 34 -47 34 -134 -2 -54 -22 -72
-26 -77 -16 -6 9 -58 191 -58 201 0 1 19 5 43 8 23 4 69 20 102 36 33 15 65
29 71 29 6 1 28 -49 48 -110z"/>
<path d="M4547 6342 c-17 -19 -122 -241 -334 -707 -25 -55 -77 -166 -114 -247
-127 -271 -259 -581 -259 -606 0 -7 11 -24 25 -37 22 -23 31 -25 122 -25 54 0
103 4 110 8 6 4 27 45 46 92 20 47 49 113 66 147 17 34 31 64 31 67 0 3 30 68
66 143 125 262 226 480 297 643 53 122 132 274 205 394 l35 59 -41 39 c-41 38
-41 38 -126 38 -46 0 -91 2 -98 5 -8 3 -22 -3 -31 -13z"/>
<path d="M3789 6303 c-12 -27 -45 -100 -74 -163 -29 -63 -83 -182 -120 -265
-37 -82 -84 -186 -105 -230 -116 -244 -247 -533 -288 -634 -25 -64 -58 -139
-74 -168 -35 -64 -35 -86 -2 -112 23 -18 41 -21 134 -21 74 0 111 4 117 13 6
6 22 46 38 87 15 41 40 102 55 135 16 33 49 105 73 160 25 55 75 168 112 250
37 83 80 181 96 218 16 38 35 81 43 95 8 15 47 97 86 182 75 163 179 367 211
411 l19 27 -35 31 c-36 31 -36 31 -151 31 l-115 0 -20 -47z"/>
<path d="M3003 5903 c-4 -21 -8 -94 -8 -163 l0 -125 90 1 c50 1 129 9 176 18
47 9 113 16 146 16 59 0 61 1 72 31 14 40 14 79 0 132 -19 76 -22 77 -171 88
-124 8 -224 21 -275 35 -19 5 -23 1 -30 -33z"/>
<path d="M4046 4183 c-876 -3 -899 -4 -926 -23 -15 -11 -35 -36 -45 -56 -14
-31 -15 -42 -5 -79 7 -24 24 -57 39 -75 l26 -31 950 0 c523 0 953 1 956 1 11
0 67 93 74 121 8 33 -24 99 -58 122 -13 8 -44 17 -68 19 -24 2 -448 2 -943 1z"/>
<path d="M3556 3440 c-69 -61 -70 -138 -2 -206 l33 -33 1119 -3 c1107 -3 1119
-3 1142 17 54 45 68 124 32 182 -39 65 32 61 -1182 67 l-1108 6 -34 -30z"/>
</g>
</svg>
